<svg width="25" height="15" viewBox="0 0 25 15" fill="none" xmlns="http://www.w3.org/2000/svg">
    <path fill-rule="evenodd" clip-rule="evenodd" d="M8.30673 8.97098H12.1273C11.4781 10.7733 9.59792 12.0655 7.53918 12.0506C5.04116 12.0325 2.97565 10.0705 2.87867 7.61967C2.77472 4.99257 4.9214 2.82278 7.57447 2.82278C8.78754 2.82278 9.89454 3.27658 10.7291 4.02019C10.9268 4.19636 11.2277 4.19748 11.4221 4.0178L12.7807 2.76236C12.9932 2.566 12.9939 2.2344 12.7821 2.03738C11.4586 0.806284 9.68312 0.0389385 7.72523 0.00140059C3.54925 -0.0786465 0.0292765 3.28297 0.000188424 7.38374C-0.029158 11.5153 3.37322 14.8735 7.57447 14.8735C11.6147 14.8735 14.9153 11.7676 15.1363 7.85504C15.1422 7.80599 15.1461 6.14818 15.1461 6.14818H8.30673C8.02639 6.14818 7.79916 6.37128 7.79916 6.64652V8.47264C7.79916 8.74788 8.02644 8.97098 8.30673 8.97098Z" fill="#716756"/>
    <path fill-rule="evenodd" clip-rule="evenodd" d="M4.67936 0.436708C4.67936 0.195501 4.48032 0 4.23474 0H2.7058C2.46022 0 2.26118 0.195501 2.26118 0.436708V2.22093H0.444623C0.199045 2.22093 0 2.41643 0 2.65763V4.15935C0 4.40056 0.199045 4.59606 0.444623 4.59606H2.26118V6.38028C2.26118 6.62148 2.46022 6.81699 2.7058 6.81699H4.23474C4.48032 6.81699 4.67936 6.62148 4.67936 6.38028V4.59606H6.49592C6.74149 4.59606 6.94054 4.40056 6.94054 4.15935V2.65763C6.94054 2.41643 6.74149 2.22093 6.49592 2.22093H4.67936V0.436708Z" transform="translate(18.0555 4.09091)" fill="#716756"/>
</svg>
