<svg width="24" height="14" viewBox="0 0 24 14" fill="none" xmlns="http://www.w3.org/2000/svg">
    <path d="M23.8727 12.3855C23.8437 12.3228 23.8166 12.2707 23.7914 12.2291C23.375 11.478 22.5793 10.556 21.4047 9.463L21.3799 9.43797L21.3675 9.42569L21.3549 9.41311H21.3423C20.8092 8.90415 20.4716 8.56193 20.3303 8.38672C20.0716 8.05296 20.0137 7.71513 20.155 7.37282C20.2549 7.1142 20.6301 6.56801 21.2797 5.73353C21.6213 5.29128 21.892 4.93683 22.0918 4.66979C23.5331 2.7507 24.1579 1.52438 23.9662 0.990343L23.8918 0.865545C23.8418 0.790413 23.7127 0.72168 23.5046 0.658996C23.2961 0.596444 23.0296 0.586099 22.7047 0.627785L19.106 0.652684C19.0477 0.631994 18.9644 0.633922 18.856 0.658996C18.7477 0.684069 18.6935 0.69665 18.6935 0.69665L18.6308 0.727992L18.5811 0.765646C18.5395 0.790544 18.4936 0.834335 18.4436 0.896931C18.3938 0.959308 18.3522 1.03251 18.319 1.11593C17.9272 2.12549 17.4817 3.06412 16.9817 3.93179C16.6735 4.44917 16.3904 4.89756 16.1319 5.27721C15.8737 5.65673 15.6571 5.93635 15.4823 6.1156C15.3072 6.29501 15.1492 6.43875 15.0073 6.54732C14.8657 6.65595 14.7575 6.70184 14.6826 6.68505C14.6076 6.66826 14.5369 6.65161 14.47 6.63495C14.3534 6.55982 14.2597 6.45764 14.189 6.32833C14.118 6.19901 14.0702 6.03625 14.0452 5.84018C14.0203 5.64398 14.0056 5.47521 14.0014 5.33332C13.9975 5.1916 13.9993 4.99115 14.0078 4.73252C14.0164 4.47376 14.0203 4.29869 14.0203 4.2069C14.0203 3.8898 14.0265 3.54565 14.0389 3.17437C14.0515 2.80309 14.0617 2.50891 14.0702 2.29219C14.0787 2.07525 14.0827 1.84574 14.0827 1.60377C14.0827 1.3618 14.068 1.17204 14.0389 1.03431C14.0102 0.896756 13.9661 0.763235 13.908 0.633791C13.8496 0.504478 13.7641 0.404447 13.6519 0.333435C13.5394 0.26251 13.3996 0.206226 13.2333 0.164408C12.7917 0.064333 12.2294 0.010197 11.5462 0.00178073C9.99681 -0.0148765 9.00124 0.0853299 8.55972 0.302268C8.38478 0.393927 8.22648 0.519163 8.08493 0.677582C7.93495 0.861206 7.91402 0.961412 8.0223 0.977894C8.52221 1.0529 8.87611 1.23231 9.0844 1.51597L9.15946 1.66628C9.21784 1.77472 9.27614 1.96672 9.33448 2.242C9.39273 2.51728 9.43033 2.8218 9.44687 3.15539C9.48845 3.76456 9.48845 4.28602 9.44687 4.71981C9.40516 5.15377 9.36577 5.49161 9.32818 5.73357C9.29058 5.97554 9.23439 6.17162 9.15946 6.32175C9.0844 6.47193 9.03446 6.56372 9.00942 6.59703C8.98443 6.63035 8.9636 6.65134 8.94705 6.65958C8.83878 6.70114 8.72616 6.72231 8.60961 6.72231C8.49289 6.72231 8.35134 6.66384 8.18477 6.54697C8.01823 6.43011 7.8454 6.26959 7.66626 6.06514C7.48712 5.86065 7.28509 5.57489 7.06009 5.20782C6.83526 4.84075 6.60198 4.40691 6.36039 3.90632L6.1605 3.54328C6.03555 3.30973 5.86486 2.96966 5.64825 2.52338C5.43152 2.07692 5.23995 1.64506 5.07342 1.22788C5.00685 1.05268 4.90684 0.919287 4.77357 0.827497L4.71103 0.789843C4.66945 0.756528 4.60271 0.721154 4.51115 0.683456C4.41945 0.645802 4.32378 0.618799 4.22373 0.602186L0.799884 0.627084C0.450012 0.627084 0.21262 0.706469 0.0876214 0.865019L0.0375958 0.940021C0.0126049 0.981795 0 1.04851 0 1.14035C0 1.23214 0.0249909 1.34479 0.0750165 1.47818C0.574835 2.65471 1.11838 3.78937 1.70564 4.88235C2.29291 5.97532 2.80323 6.85575 3.2363 7.52282C3.66946 8.19038 4.11098 8.82042 4.56086 9.41263C5.01074 10.0051 5.30854 10.3847 5.45424 10.5515C5.60011 10.7186 5.71469 10.8435 5.79798 10.9269L6.11043 11.2273C6.31036 11.4275 6.60395 11.6674 6.99133 11.9469C7.3788 12.2265 7.80776 12.5018 8.27843 12.7731C8.74919 13.0441 9.29684 13.2652 9.9217 13.4362C10.5465 13.6074 11.1546 13.676 11.7461 13.6429H13.1831C13.4746 13.6177 13.6954 13.5259 13.8455 13.3675L13.8952 13.3048C13.9286 13.255 13.9599 13.1776 13.9888 13.0735C14.018 12.9692 14.0326 12.8543 14.0326 12.7293C14.024 12.3706 14.0513 12.0474 14.1136 11.7595C14.1759 11.4718 14.2469 11.2549 14.3263 11.1088C14.4056 10.9628 14.4952 10.8396 14.5948 10.7398C14.6947 10.6397 14.7659 10.5791 14.8076 10.5582C14.8491 10.5372 14.8822 10.523 14.9072 10.5144C15.1072 10.4477 15.3425 10.5123 15.6135 10.7086C15.8842 10.9046 16.1382 11.1467 16.3758 11.4345C16.6132 11.7225 16.8985 12.0456 17.2317 12.4043C17.565 12.7631 17.8565 13.0298 18.1063 13.2053L18.3562 13.3555C18.523 13.4557 18.7396 13.5475 19.0062 13.6309C19.2724 13.7143 19.5056 13.7351 19.7058 13.6934L22.9046 13.6435C23.221 13.6435 23.4672 13.591 23.6418 13.4869C23.8168 13.3826 23.9207 13.2677 23.9543 13.1428C23.9877 13.0176 23.9895 12.8757 23.9606 12.717C23.931 12.5587 23.9018 12.4481 23.8727 12.3855Z" fill="#716756"/>
</svg>
