<svg width="24" height="20" viewBox="0 0 24 20" fill="none" xmlns="http://www.w3.org/2000/svg">
    <path d="M24 2.33848C23.1167 2.73531 22.1689 3.00443 21.173 3.12458C22.1898 2.50725 22.9682 1.52808 23.3371 0.364904C22.3833 0.936591 21.3305 1.35171 20.2087 1.57674C19.3103 0.605164 18.0326 0 16.6153 0C13.8963 0 11.6917 2.2351 11.6917 4.99021C11.6917 5.38096 11.7352 5.7626 11.8192 6.12754C7.72801 5.91921 4.1002 3.93196 1.67216 0.912259C1.24773 1.64819 1.00628 2.5057 1.00628 3.42106C1.00628 5.1529 1.87612 6.68098 3.19589 7.57499C2.38902 7.54763 1.63016 7.3226 0.965805 6.94855V7.01089C0.965805 9.42845 2.66349 11.4461 4.91456 11.9053C4.50212 12.0178 4.06722 12.0802 3.6173 12.0802C3.29938 12.0802 2.99193 12.0483 2.69047 11.9874C3.31734 13.9717 5.13503 15.4146 7.28864 15.4541C5.60444 16.7922 3.48083 17.5874 1.17428 17.5874C0.776864 17.5874 0.385412 17.563 0 17.5189C2.1791 18.9376 4.76613 19.7647 7.5466 19.7647C16.6034 19.7647 21.554 12.1593 21.554 5.56345L21.5375 4.91725C22.5048 4.21778 23.3416 3.33896 24 2.33848Z" fill="#716756"/>
</svg>
