<svg width="14" height="24" viewBox="0 0 14 24" fill="none" xmlns="http://www.w3.org/2000/svg">
    <path d="M13.3715 0.0049936L10.0388 0C6.29459 0 3.87493 2.31828 3.87493 5.90643V8.62969H0.524037C0.23448 8.62969 0 8.84891 0 9.11932V13.065C0 13.3354 0.234747 13.5544 0.524037 13.5544H3.87493V23.5106C3.87493 23.781 4.10941 24 4.39897 24H8.77094C9.06049 24 9.29497 23.7808 9.29497 23.5106V13.5544H13.213C13.5025 13.5544 13.737 13.3354 13.737 13.065L13.7386 9.11932C13.7386 8.98948 13.6833 8.86514 13.5851 8.77326C13.487 8.68138 13.3533 8.62969 13.2143 8.62969H9.29497V6.32115C9.29497 5.21157 9.57811 4.64829 11.1259 4.64829L13.371 4.64755C13.6603 4.64755 13.8947 4.42833 13.8947 4.15817V0.494367C13.8947 0.224462 13.6605 0.00549296 13.3715 0.0049936Z" fill="#716756"/>
</svg>
