<svg width="15" height="24" viewBox="0 0 15 24" fill="none" xmlns="http://www.w3.org/2000/svg">
    <path d="M5.99176 4.79265C4.14126 4.59965 2.47276 4.1439 1.04426 3.02665C0.867008 2.88765 0.684008 2.75365 0.522258 2.5984C-0.102992 1.9979 -0.165992 1.31015 0.328758 0.601396C0.752008 -0.0051043 1.46251 -0.167354 2.20101 0.180896C2.34401 0.248396 2.48026 0.332646 2.61076 0.423146C5.27301 2.2524 8.93026 2.3029 11.6025 0.505396C11.8673 0.302396 12.1503 0.136896 12.4783 0.0523957C13.116 -0.111354 13.7108 0.122896 14.053 0.680896C14.444 1.31815 14.439 1.94015 13.9573 2.4349C13.2183 3.1934 12.3295 3.74215 11.342 4.12515C10.4083 4.48715 9.38551 4.6694 8.37326 4.7904C8.52601 4.95665 8.59801 5.0384 8.69351 5.1344C10.068 6.5154 11.4485 7.89065 12.8185 9.2759C13.2853 9.7479 13.3828 10.3331 13.1258 10.8821C12.8448 11.4821 12.2158 11.8769 11.599 11.8346C11.2083 11.8076 10.9035 11.6131 10.6328 11.3404C9.59551 10.2966 8.53876 9.27215 7.52251 8.20865C7.22676 7.8994 7.08451 7.9579 6.82351 8.2264C5.78001 9.30065 4.71951 10.3584 3.65276 11.4101C3.17376 11.8824 2.60376 11.9674 2.04826 11.6976C1.45776 11.4114 1.08201 10.8086 1.11101 10.2029C1.13101 9.79315 1.33251 9.48015 1.61376 9.1994C2.97401 7.84115 4.33051 6.4794 5.68751 5.1189C5.77726 5.0284 5.86101 4.9324 5.99176 4.79265Z" transform="translate(0.0184937 12.0209)" fill="#716756"/>
    <path fill-rule="evenodd" clip-rule="evenodd" d="M0.000102428 6.02779C-0.0191847 9.33431 2.68785 12.0711 5.98906 12.0823C9.32383 12.0938 12.0496 9.41927 12.0666 6.11953C12.0834 2.74178 9.40208 0.00905678 6.06156 2.35769e-05C2.72782 -0.00919273 0.0190844 2.68478 0.000102428 6.02779ZM6.03758 3.08553C7.67607 3.08706 8.98356 4.39401 8.9893 6.03579C8.99479 7.67727 7.69084 8.99276 6.05284 8.99856C4.40983 9.00454 3.09104 7.70681 3.07884 6.07131C3.06608 4.41451 4.3853 3.08376 6.03758 3.08553Z" transform="translate(1.14838)" fill="#716756"/>
</svg>
