<svg width="24" height="23" viewBox="0 0 24 23" fill="none" xmlns="http://www.w3.org/2000/svg">
    <path fill-rule="evenodd" clip-rule="evenodd" d="M2.90576 0C1.14905 0 0 1.15228 0 2.66756C0 4.14983 1.11584 5.33708 2.83765 5.33708H2.87195C4.66272 5.33708 5.77637 4.15005 5.77637 2.66756C5.74268 1.15228 4.66272 0 2.90576 0ZM23.6735 13.9194V22.7741H18.54V14.5124C18.54 12.437 17.7975 11.0206 15.9393 11.0206C14.5209 11.0206 13.6768 11.9751 13.3054 12.8985C13.17 13.2286 13.1351 13.688 13.1351 14.1501V22.7741H8C8 22.7741 8.06921 8.78146 8 7.33171H13.1346V9.52061C13.1298 9.52836 13.1241 9.53639 13.1185 9.54438L13.1178 9.54548C13.1118 9.55401 13.1058 9.56249 13.101 9.57051H13.1346V9.52061C13.8169 8.4699 15.0352 6.96893 17.7622 6.96893C21.1407 6.96887 23.6735 9.17604 23.6735 13.9194ZM5.43811 22.8864H0.304932V7.44401H5.43811V22.8864Z" transform="translate(0 0.0310717)" fill="#716756"/>
</svg>
