<svg width="72" height="72" viewBox="0 0 72 72" fill="none" xmlns="http://www.w3.org/2000/svg">
    <path fill-rule="evenodd" clip-rule="evenodd" d="M36 72C55.8823 72 72 55.8823 72 36C72 16.1177 55.8823 0 36 0C16.1177 0 0 16.1177 0 36C0 55.8823 16.1177 72 36 72Z" fill="#AC9F8A"/>
    <mask id="mask0" mask-type="alpha" maskUnits="userSpaceOnUse" x="0" y="0" width="72" height="72">
        <path fill-rule="evenodd" clip-rule="evenodd" d="M36 72C55.8823 72 72 55.8823 72 36C72 16.1177 55.8823 0 36 0C16.1177 0 0 16.1177 0 36C0 55.8823 16.1177 72 36 72Z" fill="white"/>
    </mask>
    <g mask="url(#mask0)">
        <path fill-rule="evenodd" clip-rule="evenodd" d="M9 25C13.9706 25 18 16.9085 18 11.413C18 5.91754 18 0 9 0C0 0 0 5.54056 0 11.413C0 17.2855 4.02944 25 9 25Z" transform="translate(28 18)" stroke="#716756" stroke-linecap="round" stroke-linejoin="round"/>
        <path d="M37.1989 6C37.1989 6 32.6162 0 18.5995 0C4.5827 0 0 6 0 6" transform="translate(18 44)" stroke="#716756" stroke-linecap="round" stroke-linejoin="round"/>
    </g>
</svg>
