<svg width="7" height="13" viewBox="0 0 7 13" fill="none" xmlns="http://www.w3.org/2000/svg">
    <path d="M2.32031 13.8516V13.4297C2.32031 12.8203 2.41406 12.3203 2.60156 11.9297C2.78906 11.5339 3.13802 11.1172 3.64844 10.6797C4.35677 10.0807 4.80208 9.63021 4.98438 9.32812C5.17188 9.02604 5.26562 8.66146 5.26562 8.23438C5.26562 7.70312 5.09375 7.29427 4.75 7.00781C4.41146 6.71615 3.92188 6.57031 3.28125 6.57031C2.86979 6.57031 2.46875 6.61979 2.07812 6.71875C1.6875 6.8125 1.23958 6.98698 0.734375 7.24219L0.273438 6.1875C1.25781 5.67188 2.28646 5.41406 3.35938 5.41406C4.35417 5.41406 5.1276 5.65885 5.67969 6.14844C6.23177 6.63802 6.50781 7.32812 6.50781 8.21875C6.50781 8.59896 6.45573 8.9349 6.35156 9.22656C6.2526 9.51302 6.10417 9.78646 5.90625 10.0469C5.70833 10.3021 5.28125 10.7161 4.625 11.2891C4.09896 11.737 3.75 12.1094 3.57812 12.4062C3.41146 12.7031 3.32812 13.099 3.32812 13.5938V13.8516H2.32031ZM1.9375 16.1719C1.9375 15.4635 2.25 15.1094 2.875 15.1094C3.17708 15.1094 3.40885 15.2005 3.57031 15.3828C3.73698 15.5651 3.82031 15.8281 3.82031 16.1719C3.82031 16.5052 3.73698 16.7656 3.57031 16.9531C3.40365 17.1354 3.17188 17.2266 2.875 17.2266C2.60417 17.2266 2.38021 17.1458 2.20312 16.9844C2.02604 16.8177 1.9375 16.5469 1.9375 16.1719Z" transform="translate(0 -5)" fill="#CAC5BC"/>
</svg>
