<svg
        xmlns="http://www.w3.org/2000/svg"
        xmlns:xlink="http://www.w3.org/1999/xlink"
        width="39px" height="34px">
    <path fill-rule="evenodd"  stroke-width="2px" stroke="rgb(204, 200, 193)" fill="rgb(26, 26, 26)"
          d="M6.851,6.869 C5.615,8.110 4.995,9.623 4.995,11.409 C4.995,13.194 5.517,14.611 6.561,15.658 C7.605,16.706 9.017,17.230 10.795,17.230 C11.105,17.230 11.395,17.190 11.665,17.113 C11.937,17.035 12.187,16.957 12.419,16.881 C12.729,16.802 12.961,16.724 13.115,16.648 C13.271,16.724 13.387,16.881 13.463,17.113 C13.619,17.423 13.695,17.850 13.695,18.394 C13.695,19.867 13.329,21.130 12.593,22.177 C11.859,23.225 11.067,24.136 10.215,24.913 C9.211,25.766 8.051,26.503 6.735,27.125 L7.895,28.987 C9.829,28.289 11.491,27.241 12.883,25.844 C14.121,24.602 15.243,22.914 16.247,20.780 C17.253,18.645 17.755,15.909 17.755,12.574 C17.755,10.245 17.137,8.401 15.899,7.044 C14.663,5.685 13.155,5.007 11.375,5.007 C9.597,5.007 8.089,5.627 6.851,6.869 ZM23.091,6.869 C21.855,8.110 21.235,9.623 21.235,11.409 C21.235,13.194 21.757,14.611 22.801,15.658 C23.845,16.706 25.257,17.230 27.035,17.230 C27.345,17.230 27.635,17.190 27.905,17.113 C28.177,17.035 28.427,16.957 28.659,16.881 C28.969,16.802 29.201,16.724 29.355,16.648 C29.511,16.724 29.627,16.881 29.703,17.113 C29.859,17.423 29.935,17.850 29.935,18.394 C29.935,19.867 29.569,21.130 28.833,22.177 C28.099,23.225 27.307,24.136 26.455,24.913 C25.451,25.766 24.291,26.503 22.975,27.125 L24.135,28.987 C26.069,28.289 27.731,27.241 29.123,25.844 C30.361,24.602 31.483,22.914 32.487,20.780 C33.493,18.645 33.995,15.909 33.995,12.574 C33.995,10.245 33.377,8.401 32.139,7.044 C30.903,5.685 29.395,5.007 27.615,5.007 C25.837,5.007 24.329,5.627 23.091,6.869 Z"/>
</svg>